<svg xmlns="http://www.w3.org/2000/svg" width="389.28" height="389.279" viewBox="0 0 389.28 389.279">
  <g id="Petite_Coaching_Logo" data-name="Petite Coaching Logo" transform="translate(0 0.01)">
    <circle id="Ellipse_1" data-name="Ellipse 1" cx="194.5" cy="194.5" r="194.5" transform="translate(0 0.27)" fill="#fff"/>
    <path id="Pfad_1" data-name="Pfad 1" d="M339.66,332.737c-41.155,0-78.818-11.862-108.112-30.627a56.923,56.923,0,0,0,12.714-5.935c6.779-4.222,8.973-6.39,8.973-6.39,23.781,25.428,54.168,34.649,87.344,34.649a195.57,195.57,0,0,0,24.443-1.548,194.677,194.677,0,0,0-115.57-306.77C222.716,41.6,209.216,85.8,209.216,146.536c0,52.28,8.592,89.9,24.965,117.813,0,0-1.076,4.2-6.531,13.178s-11.241,13.244-11.241,13.244c-40.559-32.671-62.966-80.879-62.966-136.884a190.341,190.341,0,0,1,3.437-36.017l0,.011.3-1.415c.19-.927.389-1.846.588-2.765l.579-2.732h.05c9.188-39.45,31.529-75.167,67.949-98.328q-8.567-.762-17.316-.77C101.485,11.878,14.34,99.015,14.34,206.5A194.288,194.288,0,0,0,89.383,360.052V153.845c0-35.494-19.866-38.722-33.193-38.722v-4.139h98.2c-.944,3.775-1.415,6.622-1.473,6.986-12.358.488-25.759,4.47-25.759,36.338v135.51l45.625,12.416a64.565,64.565,0,0,0,15.677,2.309c32.721,0,58.538-30.883,58.538-103.716,0-48.431-13.451-68.587-31.032-76.98.1-1.457.273-3.526.6-6.374.157-1.382.406-3.03.662-4.6,38.829,5.645,70.789,25.908,70.789,87.5,0,75.126-44.251,110.156-119.841,109.262l-41.023-.5v73.975a194.727,194.727,0,0,0,230.816-51.4A173.282,173.282,0,0,1,339.66,332.737Z" transform="translate(-14.34 -11.88)" fill="#707070"/>
  </g>
</svg>
