<svg xmlns="http://www.w3.org/2000/svg" viewBox="0 0 181.39 181.32"><defs><style>.cls-1{fill:#f7d3c7;}</style></defs><g id="Ebene_2" data-name="Ebene 2"><g id="Ebene_1-2" data-name="Ebene 1"><path class="cls-1" d="M140,140a89.68,89.68,0,0,1-36.87-7.56l-.15-.06C76.42,120.43,59.52,95.55,57.75,66c2.56-1.55,6.1-1.6,8.8-1.6h6.73c3.17,0,6.24,0,9.14.2,1.11,27.23,8.75,45.52,20,56.81.38.39.76.76,1.15,1.13l.14.13c.36.34.73.67,1.1,1l.13.11q1.86,1.64,3.83,3l.16.11,1.11.76.29.19c.35.23.69.45,1,.66l.3.19,1.16.69a55.15,55.15,0,0,0,27.59,6.9c9.62,0,21.7-1.69,32.17-6.66A90.74,90.74,0,0,0,99.57.36c-10.64,10.5-16.39,27.88-17.2,51.4H58.08C60.25,31.43,69.81,12.27,87.34,0A90.69,90.69,0,0,0,35.86,162.87V75.23c0-15.71-8.77-17.14-14.68-17.14V56.26H79.92c23.25,0,43.85,5.5,43.85,39.57,0,12-2.57,21.76-7.44,29.24a49.11,49.11,0,0,1-12.41-9.78A98.51,98.51,0,0,0,105.62,96c0-36.71-14.68-36.71-32.84-36.71H66.05c-2.86,0-6.09,0-8.68,1.89-2.76,2-4.78,6-4.78,14.22v60l20.19,5.5a28.63,28.63,0,0,0,6.94,1,20.37,20.37,0,0,0,16.2-7.84,78.27,78.27,0,0,0,7.21,3.24c-8.48,4.76-19.38,7-32.39,6.85L52.59,144v29a90.78,90.78,0,0,0,118-39.46A74.64,74.64,0,0,1,140,140Z"/></g></g></svg>